<?xml version="1.0" encoding="UTF-8"?>
<svg width="126px" height="18px" viewBox="0 0 126 18" version="1.1" xmlns="http://www.w3.org/2000/svg" xmlns:xlink="http://www.w3.org/1999/xlink">
    <!-- Generator: Sketch 48.2 (47327) - http://www.bohemiancoding.com/sketch -->
    <title>system</title>
    <desc>Created with Sketch.</desc>
    <defs></defs>
    <g id="Page-1" stroke="none" stroke-width="1" fill="none" fill-rule="evenodd">
        <g id="system">
            <g stroke-linecap="round" id="Shape" stroke="#867740">
                <path d="M0.5,17.5 L4.5,0.5"></path>
            </g>
            <path d="M11.92,14.196 C11.2199965,14.196 10.5806696,14.1260007 10.002,13.986 C9.42333044,13.8459993 8.98000154,13.678001 8.672,13.482 L8.882,11.438 C9.18066816,11.7273348 9.59833065,11.9723323 10.135,12.173 C10.6716694,12.3736677 11.2806633,12.474 11.962,12.474 C13.1286725,12.474 13.712,12.1193369 13.712,11.41 C13.712,11.213999 13.6653338,11.0366675 13.572,10.878 C13.4786662,10.7193325 13.3783339,10.5886672 13.271,10.486 C13.1636661,10.3833328 12.9840013,10.2736672 12.732,10.157 C12.4799987,10.0403328 12.2840007,9.95633359 12.144,9.905 C12.0039993,9.85366641 11.7660017,9.77200056 11.43,9.66 C11.1406652,9.5666662 10.9400006,9.4966669 10.828,9.45 L10.268,9.212 C10.0066654,9.10933282 9.81533394,9.01833373 9.694,8.939 C9.57266606,8.85966627 9.42333422,8.74766739 9.246,8.603 C9.06866578,8.45833261 8.93800042,8.31133408 8.854,8.162 C8.76999958,8.01266592 8.69533366,7.83300105 8.63,7.623 C8.56466634,7.41299895 8.532,7.18666788 8.532,6.944 C8.532,6.17866284 8.82133044,5.49733632 9.4,4.9 C9.97866956,4.30266368 10.869994,4.004 12.074,4.004 C12.6993365,4.004 13.3036637,4.08333254 13.887,4.242 C14.4703362,4.40066746 14.9066652,4.5733324 15.196,4.76 L15.014,6.594 C13.9406613,6.00599706 12.9840042,5.712 12.144,5.712 C11.6679976,5.712 11.2503351,5.79133254 10.891,5.95 C10.5316649,6.10866746 10.352,6.3746648 10.352,6.748 C10.352,7.10266844 10.5153317,7.37566571 10.842,7.567 C11.1686683,7.75833429 11.66333,7.95666564 12.326,8.162 C12.6713351,8.26466718 12.9349991,8.34866634 13.117,8.414 C13.2990009,8.47933366 13.5486651,8.57733268 13.866,8.708 C14.1833349,8.83866732 14.4306658,8.97633261 14.608,9.121 C14.7853342,9.26566739 14.9696657,9.44299895 15.161,9.653 C15.3523343,9.86300105 15.4923329,10.1103319 15.581,10.395 C15.6696671,10.6796681 15.714,10.9946649 15.714,11.34 C15.714,11.6013346 15.6906669,11.8463322 15.644,12.075 C15.5973331,12.3036678 15.4923341,12.553332 15.329,12.824 C15.1656658,13.094668 14.9510013,13.3256657 14.685,13.517 C14.4189987,13.7083343 14.0503357,13.8693327 13.579,14 C13.1076643,14.1306673 12.5546698,14.196 11.92,14.196 Z M23.61,14 L17.198,14 L17.198,4.2 L23.47,4.2 L23.47,5.936 L19.032,5.936 L19.032,8.022 L22.476,8.022 L22.476,9.758 L19.032,9.758 L19.032,12.264 L23.61,12.264 L23.61,14 Z M29.224,14.196 C27.8333264,14.196 26.6876712,13.7270047 25.787,12.789 C24.8863288,11.8509953 24.436,10.6166743 24.436,9.086 C24.436,7.56465906 24.8886621,6.337338 25.794,5.404 C26.6993379,4.470662 27.8753261,4.004 29.322,4.004 C29.8166691,4.004 30.3439972,4.05766613 30.904,4.165 C31.4640028,4.27233387 31.9166649,4.40999916 32.262,4.578 L32.066,6.286 C31.1513288,5.9126648 30.2506711,5.726 29.364,5.726 C28.3839951,5.726 27.6443358,6.03166361 27.145,6.643 C26.6456642,7.25433639 26.396,8.05932834 26.396,9.058 C26.396,10.0940052 26.6573307,10.9223302 27.18,11.543 C27.7026693,12.1636698 28.4586617,12.474 29.448,12.474 C29.8493353,12.474 30.2973309,12.4226672 30.792,12.32 L30.792,10.57 L29.714,10.57 L29.714,9.086 L32.584,9.086 L32.584,13.454 C32.2293316,13.6593344 31.72067,13.8343326 31.058,13.979 C30.39533,14.1236674 29.7840028,14.196 29.224,14.196 Z M41.95,14 L40.088,14 L39.248,11.634 L35.986,11.634 L35.146,14 L33.284,14 L36.77,4.2 L38.464,4.2 L41.95,14 Z M38.632,9.898 L37.61,7.028 L36.602,9.898 L38.632,9.898 Z M56.188,14 L54.326,14 L53.486,7.434 L50.98,11.942 L48.46,7.448 L47.62,14 L45.758,14 L47.116,4.2 L48.586,4.2 L50.98,8.666 L53.36,4.2 L54.83,4.2 L56.188,14 Z M64.224,14 L57.812,14 L57.812,4.2 L64.084,4.2 L64.084,5.936 L59.646,5.936 L59.646,8.022 L63.09,8.022 L63.09,9.758 L59.646,9.758 L59.646,12.264 L64.224,12.264 L64.224,14 Z M69.838,14.196 C68.4473264,14.196 67.3016712,13.7270047 66.401,12.789 C65.5003288,11.8509953 65.05,10.6166743 65.05,9.086 C65.05,7.56465906 65.5026621,6.337338 66.408,5.404 C67.3133379,4.470662 68.4893261,4.004 69.936,4.004 C70.4306691,4.004 70.9579972,4.05766613 71.518,4.165 C72.0780028,4.27233387 72.5306649,4.40999916 72.876,4.578 L72.68,6.286 C71.7653288,5.9126648 70.8646711,5.726 69.978,5.726 C68.9979951,5.726 68.2583358,6.03166361 67.759,6.643 C67.2596642,7.25433639 67.01,8.05932834 67.01,9.058 C67.01,10.0940052 67.2713307,10.9223302 67.794,11.543 C68.3166693,12.1636698 69.0726617,12.474 70.062,12.474 C70.4633353,12.474 70.9113309,12.4226672 71.406,12.32 L71.406,10.57 L70.328,10.57 L70.328,9.086 L73.198,9.086 L73.198,13.454 C72.8433316,13.6593344 72.33467,13.8343326 71.672,13.979 C71.00933,14.1236674 70.3980028,14.196 69.838,14.196 Z M82.564,14 L80.702,14 L79.862,11.634 L76.6,11.634 L75.76,14 L73.898,14 L77.384,4.2 L79.078,4.2 L82.564,14 Z M79.246,9.898 L78.224,7.028 L77.216,9.898 L79.246,9.898 Z M90.502,14 L86.834,14 L86.834,4.2 L90.502,4.2 C91.9300071,4.2 93.0919955,4.63866228 93.988,5.516 C94.8840045,6.39333772 95.332,7.58799244 95.332,9.1 C95.332,10.6120076 94.8840045,11.8066623 93.988,12.684 C93.0919955,13.5613377 91.9300071,14 90.502,14 Z M90.502,5.922 L88.626,5.922 L88.626,12.278 L90.502,12.278 C91.435338,12.278 92.1469975,11.9980028 92.637,11.438 C93.1270025,10.8779972 93.372,10.0986717 93.372,9.1 C93.372,8.10132834 93.1270025,7.3220028 92.637,6.762 C92.1469975,6.2019972 91.435338,5.922 90.502,5.922 Z M104.418,14 L102.556,14 L100.526,10.36 L98.706,10.36 L98.706,14 L96.914,14 L96.914,4.2 L100.498,4.2 C102.747345,4.2 103.872,5.14265724 103.872,7.028 C103.872,7.7280035 103.727335,8.29733114 103.438,8.736 C103.148665,9.17466886 102.738003,9.5573317 102.206,9.884 L104.418,14 Z M100.092,5.698 L98.706,5.698 L98.706,8.68 L100.022,8.68 C100.778004,8.68 101.295999,8.54933464 101.576,8.288 C101.856001,8.02666536 101.996,7.64866914 101.996,7.154 C101.996,6.65933086 101.860668,6.29300119 101.59,6.055 C101.319332,5.81699881 100.820004,5.698 100.092,5.698 Z M107.47,14 L105.678,14 L105.678,4.2 L107.47,4.2 L107.47,14 Z M117.704,4.2 L114.26,14 L112.076,14 L108.548,4.2 L110.41,4.2 L113.154,11.634 L115.856,4.2 L117.704,4.2 Z M125.236,14 L118.824,14 L118.824,4.2 L125.096,4.2 L125.096,5.936 L120.658,5.936 L120.658,8.022 L124.102,8.022 L124.102,9.758 L120.658,9.758 L120.658,12.264 L125.236,12.264 L125.236,14 Z" id="Sega-Mega-Drive" fill="#FFFFFF"></path>
        </g>
    </g>
</svg>