<?xml version="1.0" encoding="UTF-8"?>
<svg width="78px" height="18px" viewBox="0 0 78 18" version="1.1" xmlns="http://www.w3.org/2000/svg" xmlns:xlink="http://www.w3.org/1999/xlink">
    <!-- Generator: Sketch 48.2 (47327) - http://www.bohemiancoding.com/sketch -->
    <title>system</title>
    <desc>Created with Sketch.</desc>
    <defs></defs>
    <g id="Page-1" stroke="none" stroke-width="1" fill="none" fill-rule="evenodd">
        <g id="system">
            <path d="M11.92,14.196 C11.2199965,14.196 10.5806696,14.1260007 10.002,13.986 C9.42333044,13.8459993 8.98000154,13.678001 8.672,13.482 L8.882,11.438 C9.18066816,11.7273348 9.59833065,11.9723323 10.135,12.173 C10.6716694,12.3736677 11.2806633,12.474 11.962,12.474 C13.1286725,12.474 13.712,12.1193369 13.712,11.41 C13.712,11.213999 13.6653338,11.0366675 13.572,10.878 C13.4786662,10.7193325 13.3783339,10.5886672 13.271,10.486 C13.1636661,10.3833328 12.9840013,10.2736672 12.732,10.157 C12.4799987,10.0403328 12.2840007,9.95633359 12.144,9.905 C12.0039993,9.85366641 11.7660017,9.77200056 11.43,9.66 C11.1406652,9.5666662 10.9400006,9.4966669 10.828,9.45 L10.268,9.212 C10.0066654,9.10933282 9.81533394,9.01833373 9.694,8.939 C9.57266606,8.85966627 9.42333422,8.74766739 9.246,8.603 C9.06866578,8.45833261 8.93800042,8.31133408 8.854,8.162 C8.76999958,8.01266592 8.69533366,7.83300105 8.63,7.623 C8.56466634,7.41299895 8.532,7.18666788 8.532,6.944 C8.532,6.17866284 8.82133044,5.49733632 9.4,4.9 C9.97866956,4.30266368 10.869994,4.004 12.074,4.004 C12.6993365,4.004 13.3036638,4.08333254 13.887,4.242 C14.4703362,4.40066746 14.9066652,4.5733324 15.196,4.76 L15.014,6.594 C13.9406613,6.00599706 12.9840042,5.712 12.144,5.712 C11.6679976,5.712 11.2503351,5.79133254 10.891,5.95 C10.5316649,6.10866746 10.352,6.3746648 10.352,6.748 C10.352,7.10266844 10.5153317,7.37566571 10.842,7.567 C11.1686683,7.75833429 11.66333,7.95666564 12.326,8.162 C12.6713351,8.26466718 12.9349991,8.34866634 13.117,8.414 C13.2990009,8.47933366 13.5486651,8.57733268 13.866,8.708 C14.1833349,8.83866732 14.4306658,8.97633261 14.608,9.121 C14.7853342,9.26566739 14.9696657,9.44299895 15.161,9.653 C15.3523343,9.86300105 15.4923329,10.1103319 15.581,10.395 C15.6696671,10.6796681 15.714,10.9946649 15.714,11.34 C15.714,11.6013346 15.6906669,11.8463322 15.644,12.075 C15.5973331,12.3036678 15.4923342,12.553332 15.329,12.824 C15.1656658,13.094668 14.9510013,13.3256657 14.685,13.517 C14.4189987,13.7083343 14.0503357,13.8693327 13.579,14 C13.1076643,14.1306673 12.5546698,14.196 11.92,14.196 Z M21.44,14.196 C20.0213262,14.196 18.8616712,13.7270047 17.961,12.789 C17.0603288,11.8509953 16.61,10.6213409 16.61,9.1 C16.61,7.57865906 17.0603288,6.34900469 17.961,5.411 C18.8616712,4.47299531 20.0213262,4.004 21.44,4.004 C22.5133387,4.004 23.4419961,4.19533142 24.226,4.578 L24.03,6.286 C23.0873286,5.9126648 22.2240039,5.726 21.44,5.726 C20.5159954,5.726 19.8066691,6.03399692 19.312,6.65 C18.8173309,7.26600308 18.57,8.08266158 18.57,9.1 C18.57,10.1173384 18.8173309,10.9339969 19.312,11.55 C19.8066691,12.1660031 20.5159954,12.474 21.44,12.474 C22.2240039,12.474 23.0873286,12.2873352 24.03,11.914 L24.226,13.622 C23.4419961,14.0046686 22.5133387,14.196 21.44,14.196 Z M32.71,13.034 C32.0286633,13.8086705 31.0160067,14.196 29.672,14.196 C28.3279933,14.196 27.3153367,13.8063372 26.634,13.027 C25.9526633,12.2476628 25.612,11.1720069 25.612,9.8 L25.612,4.2 L27.404,4.2 L27.404,9.198 C27.404,10.2340052 27.5649984,11.0389971 27.887,11.613 C28.2090016,12.1870029 28.8039957,12.474 29.672,12.474 C30.5400043,12.474 31.1349984,12.1870029 31.457,11.613 C31.7790016,11.0389971 31.94,10.2340052 31.94,9.198 L31.94,4.2 L33.732,4.2 L33.732,9.8 C33.732,11.1720069 33.3913367,12.2499961 32.71,13.034 Z M45.618,14 L43.756,14 L42.916,7.434 L40.41,11.942 L37.89,7.448 L37.05,14 L35.188,14 L36.546,4.2 L38.016,4.2 L40.41,8.666 L42.79,4.2 L44.26,4.2 L45.618,14 Z M57.28,14 L55.418,14 L54.578,7.434 L52.072,11.942 L49.552,7.448 L48.712,14 L46.85,14 L48.208,4.2 L49.678,4.2 L52.072,8.666 L54.452,4.2 L55.922,4.2 L57.28,14 Z M66.772,4.2 L63.328,14 L61.144,14 L57.616,4.2 L59.478,4.2 L62.222,11.634 L64.924,4.2 L66.772,4.2 Z M77.566,14 L75.704,14 L74.864,7.434 L72.358,11.942 L69.838,7.448 L68.998,14 L67.136,14 L68.494,4.2 L69.964,4.2 L72.358,8.666 L74.738,4.2 L76.208,4.2 L77.566,14 Z" id="scummvm" fill="#FFFFFF"></path>
            <g stroke-linecap="round" id="Shape" stroke="#867740">
                <path d="M0.5,17.5 L4.5,0.5"></path>
            </g>
        </g>
    </g>
</svg>